<svg xmlns="http://www.w3.org/2000/svg" viewBox="0 0 410.26 87.81"><title>Element 3</title><g id="Ebene_2" data-name="Ebene 2"><g id="Schriftzug"><g id="_Gruppe_" data-name="&lt;Gruppe&gt;"><path d="M228.61,24.46a15.12,15.12,0,0,0,3.87.57,4.73,4.73,0,0,0,4.22-2.18l1.48-5.27q0-2.32-1.35-3.06a8.12,8.12,0,0,0-3.83-.74,5.65,5.65,0,0,0-2,.95,12,12,0,0,0-3.2,3.44,8.21,8.21,0,0,0-1.33,4.44Q226.52,23.89,228.61,24.46Z" fill="#32271f"></path><path d="M358.62,64.72c-.55-.6-1.45-.6-2.34.46-5.44,6.45-12.12,12.45-20.36,14.26-3.17.7-6.87.6-9.2-1.67a9.08,9.08,0,0,1-2.41-6.32,2.2,2.2,0,0,1,1.22-2.06c7.52-5.1,17.31-11.64,20-20.92,2.14-7.51-4-12.91-11.26-10.56-3.51,1.14-6,3.47-8.35,6.25a37.83,37.83,0,0,0-8.78,20.54c-.26,2.55-.68,5.34-.68,5.34-3.31,1.91-9.39.4-11.5-3-3.06-4.88-3.2-9.94-4-15.27-.51-3.49-1.86-9.08-6.59-7.11-3.63,1.51-3.7,7.59-4.79,10.78a83.37,83.37,0,0,1-3.5,8.6c-2.17,4.6-4.65,9.7-8,13.58a2.68,2.68,0,0,1-1,.77c.88-.39-2.24-8.85-2.51-9.74-2-6.78-3.8-13.89-3.6-21,0-1.75.86-4.31.14-6a2.2,2.2,0,0,0-1.58-1.17c-4.75-1-5.69,3.53-6.38,7.14-1,5.31-4,10.43-7,14.86a59.73,59.73,0,0,1-9.43,10.83c-3.33,3-7.83,6-12.48,6q-3.18,0-4.39-5a46.62,46.62,0,0,1-1-14.9c.36-4.76,1.69-9.59,1.69-14.33q0-2.42-1.17-2.42c-2.2,0-3.41,1.79-5.3,2.57a11.39,11.39,0,0,1-8.89,0c-2.3-1.18-5.31-5-8.19-4-5.12,1.77-7.89,9.66-10.25,14q-3.13,5.79-5.91,11.76c-1.66,3.55-2.94,7.7-5.78,10.54h-1a127.38,127.38,0,0,1-4.77-19.73c-.59-3.38-1.13-6.77-1.67-10.16-.36-2.25-.82-6-3-7.22-1.53-.87-3.91-.53-4.71,1a53.59,53.59,0,0,0-2.91,7.69c-3.73,10.37-9.32,20.65-17,23.48-1.84.68-4,.92-5.69-.12s-2.31-2.74-2.88-4.45c-2-6.22-1-17-6.59-21.38-3-2.4-7.56-1.46-10.41.8-3.73,3-6.27,7.42-8.57,11.51q-2,3.48-4.25,6.76-1.15,1.64-2.37,3.21c-.62.79-1.67,2.66-2.58,3a.52.52,0,0,1-.06-.31,67.49,67.49,0,0,1,2-15.31c.72-3.09,3.94-9.45,1.89-12.45a3.33,3.33,0,0,0-3-1.37c-1.16.13-1.49.87-2.23,1.66-5.27,5.66-19.67,9.82-25.93,3.47-1.43-1.45-2.81-2.94-4.29-4.35a3.33,3.33,0,0,0-2.59-1.07c-1.33.06-1.58.3-2.45-.72s-1.32-1.75-2.62-1.75c-4.48,0-7.91,3.67-10.67,6.78A42.66,42.66,0,0,0,52,53.24c-.74,1.26-2,3.87-2.94,5.17-1.14,1.6-4.08,4.17-6.17,6.1-5.71,5.26-15.72,14.34-26,15.79-3.17.45-6,.13-8.21-2.36-2.46-3-2.4-6.51-1.84-10.15a43.6,43.6,0,0,1,7.62-19c1.28-1.68,2.84-3.29,4.78-3.08,1.17.12,2.61,7,3,7.88.7,1.55,1.35,2.12,2.39,2.12a2.44,2.44,0,0,0,2.21-1.89,10.83,10.83,0,0,0,.66-3.64c0-3.79-3-8.3-5.25-11.12s-5.76-.45-7.84,1.53C6.59,47.86.72,59.29.06,70c-.36,5.89,1,11.84,6.21,15.29,8.47,5.56,20.08-.73,27.12-6a91.13,91.13,0,0,0,7.51-6.49c1.2-1.11,4.18-3.64,5.31-4.92C44.65,76,46.6,86.8,57.13,85.42a22.83,22.83,0,0,0,15.24-9.57,29.14,29.14,0,0,0,4.46-9.94c.24-1,2-10.51,1.22-10.83,8.89,3.45,17,1.11,24.8-3.38a4.66,4.66,0,0,1-.06,1.1c-.5,4.2-1.46,8.32-1.9,12.53q-.48,4.58-.57,9.19c0,2.46-.25,5,.88,7.29a3.07,3.07,0,0,0,1.22,1.28,7.07,7.07,0,0,0,1.7.64c1.38.34,5.24-5.11,6-6,5.35-6.59,9.13-14.3,14.46-20.94,1.27-1.58,4.05-4.22,6.09-2.28s2.37,5.76,3,8.37c1.16,4.82,1.29,10.29,4.15,14.52,4.16,6.16,11.89,3.42,16.93-.15,4.81-3.4,8-7.9,10.89-12.95,1.23-2.18,2.42-4.38,3.51-6.63.41-.84,1.93-3.1,1.67-4.11,1.43,5.57,3.09,11.91,4.56,17.47q1.18,4.45,2.49,8.86c.66,2.23,1.09,5.24,3.1,6.72,4.85,3.56,8.61-3.68,10.34-7.05q4-7.73,8.23-15.32c2.27-4,4.55-10.12,7.8-13.48,1.84-1.91,4.43.24,6.76.79s7.91-.13,7.91-.13-.37,4.2-.58,6.06a51.61,51.61,0,0,0-.33,7.54c.18,6.34,1.11,13.71,5,18.92a9.67,9.67,0,0,0,8.18,3.84c4.22,0,8.13-2.7,11.37-5.2,8.88-6.84,12.94-17.19,18.75-26.4.16,2.71,1.94,7,2.4,8.49,1.72,5.48,3.46,11,4.13,16.67.23,2.05,0,4.41,2.19,5.54a4.6,4.6,0,0,0,4.22-.22,11.22,11.22,0,0,0,3.24-2.94,72.06,72.06,0,0,0,8.18-12.93c1.16-2.27,2.25-4.58,3.34-6.89a58.16,58.16,0,0,1,3.28-6.9A42.75,42.75,0,0,0,298,66.19c2.15,3.55,3.33,5.51,6.9,7.84s8.66,3.15,12.55.95l0,0c1.1,6,4.57,11.16,10.9,12.26,4.21.74,8.56-.37,12.46-2.12a38.53,38.53,0,0,0,16.7-14.55,8.87,8.87,0,0,0,1.62-4A2.53,2.53,0,0,0,358.62,64.72ZM73.13,59.2c-1.32,7-3.89,14.5-10.48,18.15a9.22,9.22,0,0,1-4.9,1.31,5.22,5.22,0,0,1-4.28-2.44,7.69,7.69,0,0,1-.58-4.5c.67-7.31,3.41-17.25,9.45-22,3.83-3,10.34-1.9,11.25,3.56a13.82,13.82,0,0,1-.23,4.56Q73.26,58.5,73.13,59.2ZM325.73,56a29.79,29.79,0,0,1,3-6.31,16.12,16.12,0,0,1,3.74-4.15,6.57,6.57,0,0,1,3.92-1.49,2,2,0,0,1,.72.17,3.32,3.32,0,0,1,.78.45,2.6,2.6,0,0,1,.63.71,1.78,1.78,0,0,1,.26.95,9.65,9.65,0,0,1-.3,2.44,8.57,8.57,0,0,1-1.07,2.37,19.84,19.84,0,0,1-2.07,2.66q-1.3,1.45-3.31,3.3Q331.17,58,330,59l-2.3,2q-1.15,1-2.15,1.78T323.95,64A35.11,35.11,0,0,1,325.73,56Z" fill="#32271f"></path><path id="_Zusammengesetzter_Pfad_" data-name="&lt;Zusammengesetzter Pfad&gt;" d="M378.35,28.5h-4.23c-4.11,0-14.48-.39-14.48-.39l.88-4.7s9.85-.81,18.15-1.14c-4.55-7.54-9.57-20.86-9.57-20.86s3-.26,4-1.41A151.05,151.05,0,0,0,384.2,20.47c3.94-8.6,12.2-20.32,12.2-20.32l4.06,1.27s-7.64,12-11.71,20.86c2.44-.16,21.5-1.08,21.5-1.08l-.94,6.09-19.38.46c3.34,5.27,9.85,19.76,9.85,19.76l-2.37,1.72S389.57,38,384,29.65A185.26,185.26,0,0,1,373.3,47l-5.08-1.31A143.46,143.46,0,0,0,378.35,28.5Z" fill="#ee7203"></path></g></g></g></svg>