<?xml version="1.0" encoding="UTF-8"?>
<svg id="Ebene_2" data-name="Ebene 2" xmlns="http://www.w3.org/2000/svg" viewBox="0 0 679.57 120.16">
  <defs>
    <style>
      .cls-1 {
        fill: #ff4054;
      }
    </style>
  </defs>
  <g id="Layer_1" data-name="Layer 1">
    <g>
      <path class="cls-1" d="m357.99,63.9c1.02-.65,1.58-1.04,2.17-1.39,4.71-2.83,9.39-5.71,14.16-8.45,1.45-.84,3.08-1.45,4.7-1.91,5.72-1.63,10.15.95,11.64,6.71.98,3.76.71,7.5-.18,11.23-.24,1-.47,2-.83,3.53,1.02-.76,1.63-1.22,2.24-1.67,6.96-5.13,13.86-10.34,20.9-15.36,2.69-1.92,5.66-3.46,8.56-5.06,2.46-1.36,4.13-.77,5.34,1.7,1.15,2.34,1.35,4.82.75,7.3-.56,2.26-1.3,4.48-2.02,6.7-1.71,5.3-3.28,10.64-3.06,16.28.07,1.66.39,3.38.98,4.93,1.26,3.26,3.96,4.81,7.35,4,2.16-.51,4.33-1.42,6.2-2.61,6.9-4.38,12.92-9.77,17.44-16.59,3.07-4.63,5.7-9.54,8.53-14.33.77-1.32,1.43-2.72,2.35-3.94,1.95-2.59,4-2.83,6.7-.96.26.18.51.39.86.67,4.66-4.21,9.95-6.35,15.96-3.26,5.61,2.89,8.32,7.85,8.47,14.74.73-1.14,1.12-1.79,1.55-2.42,1.17-1.7,3.05-2.57,4.8-2.05,2.05.61,3.84,1.74,3.98,4.04.09,1.54-.23,3.22-.8,4.67-.89,2.24-2.14,4.33-3.26,6.47-.85,1.62-1.22,3.32-1,5.13.23,2.02,1.23,2.89,3.25,2.7.94-.09,1.91-.37,2.79-.74,2.42-1.01,4.59-2.42,6.35-4.36,3.26-3.59,6.46-7.22,9.67-10.85,2.67-3.03,5.22-6.17,8.01-9.08,1.6-1.67,3.5-3.11,5.42-4.42,1.1-.75,2.48-1.24,3.8-1.51,3.93-.79,7.17,1.64,7.38,5.63.1,1.73-.18,3.55-.67,5.23-.95,3.24-2.17,6.4-3.26,9.6-.55,1.6-1.2,3.18-1.56,4.82-.99,4.52,1.81,8.1,6.47,8.13,1.73.01,3.56-.35,5.19-.96,4.6-1.71,8.62-4.42,12.22-7.74,4.85-4.48,8.58-9.8,12.11-15.87-1,.29-1.6.4-2.14.64-2.43,1.09-4.85,2.23-7.28,3.32-1.04.46-2.07.94-3.15,1.27-2.17.67-3.66-.15-4.3-2.27-.07-.23-.14-.46-.19-.7-1.15-5.95,2.91-14.57,8.47-17.09,3.74-1.69,7.75-2.77,11.65-4.1.53-.18,1.1-.3,1.66-.38,5.61-.74,9.47-3.82,11.98-8.77.84-1.65,1.68-3.34,2.8-4.8,1.01-1.31,2.28-2.52,3.67-3.4,1.63-1.04,3.02-.62,4.3.86,1.41,1.65,1.92,3.56,1.2,5.63-.49,1.44-1.21,2.8-1.84,4.19-.35.79-.73,1.56-1.35,2.86,2.38-.44,4.31-.65,6.14-1.17,13.91-3.91,28.25-5.62,42.43-8.12,5.58-.98,11.15-1.93,16.29-4.58,1.51-.78,3.39-.94,5.13-1.19,1.2-.18,2.14.48,2.86,1.49,1.8,2.53,2.11,5.24.79,7.99-.71,1.5-1.67,2.97-2.81,4.19-3.42,3.69-7.59,6.24-12.52,7.48-10.77,2.72-21.71,4.5-32.66,6.33-9.18,1.53-18.34,3.19-27.52,4.75-5.61.95-9.62,3.95-12.18,8.97-3.02,5.93-4.85,12.12-3.97,18.84,1.02,7.72,5.81,12.03,13.69,12.38,9.81.44,19.15-1.65,28.16-5.38,7.53-3.12,14.43-7.29,20.63-12.58.44-.37.84-.77,1.31-1.09,1.81-1.24,3.93-.69,4.86,1.32.96,2.08.87,4.23.12,6.35-.79,2.25-2.21,4.1-3.84,5.81-2.65,2.76-5.73,4.98-9.01,6.92-9.57,5.66-19.96,9.17-30.74,11.67-5.39,1.25-10.81,2.13-16.36,1.89-3.67-.16-7.24-.81-10.62-2.3-6.59-2.89-10.16-8-11.15-14.99-.22-1.49-.37-3-.58-4.77-.62.47-1.05.8-1.48,1.12-5.17,4.05-10.68,7.57-16.55,10.53-4.76,2.39-9.77,3.83-15.19,3.66-6.74-.21-10.87-4.03-11.49-10.69-.45-4.83.43-9.46,2.03-13.99.25-.73.52-1.45.78-2.18-.18-.15-.37-.29-.56-.44-.46.64-.87,1.32-1.39,1.9-3.99,4.45-7.89,8.98-12.04,13.28-2.79,2.9-5.8,5.62-8.95,8.12-2.74,2.17-5.95,3.61-9.5,4.04-6.93.85-11.66-2.99-12.21-9.9-.1-1.27,0-2.57,0-3.98-1.09.17-1.43,1.16-2,1.83-2.19,2.58-4.11,5.44-6.57,7.73-3.12,2.9-6.58,5.46-10.08,7.92-2.39,1.68-5.16,2.68-8.18,2.71-4.73.04-8.15-2.27-9.47-6.77-.58-1.98-.68-4.11-.95-6.18-.09-.7,0-1.41,0-2.71-1.01.92-1.62,1.51-2.25,2.06-3.22,2.82-6.35,5.75-9.7,8.41-3.13,2.48-6.69,4.2-10.72,4.87-7.05,1.17-13.21-2.2-15.78-8.78-1.85-4.75-2.22-9.7-1.8-14.73.38-4.52,1.05-8.95,3.14-13.06.14-.28.18-.62.25-.93,0-.05-.08-.12-.31-.42-.68.45-1.43.87-2.08,1.4-7.48,6.05-15.05,11.99-22.37,18.22-5.12,4.36-9.41,9.52-12.96,15.27-.73,1.18-1.84,2.29-3.03,3.01-2.34,1.41-4.47.35-5.18-2.28-.61-2.26-.4-4.52.27-6.68.8-2.61,1.78-5.18,2.88-7.68,1.52-3.47,3.26-6.84,4.83-10.28.73-1.61,1.35-3.27,1.86-4.96.25-.81.26-1.76.14-2.61-.49-3.38-2.25-4.52-5.44-3.35-1.72.63-3.38,1.56-4.92,2.57-10.25,6.72-18.97,15.06-26.28,24.86-1.15,1.55-2.04,3.29-3.16,4.86-.94,1.3-1.94,2.59-3.1,3.69-1.17,1.11-2.66,1.52-4.27.85-1.55-.65-2.03-1.96-2.19-3.48-.33-3.26-.03-6.49,1.28-9.48,1.61-3.68,3.38-7.3,5.33-10.82,2.81-5.08,5.9-10,8.74-15.06,1.42-2.52,2.59-5.18,3.77-7.82.88-1.95,1.05-4.05.76-6.16-.33-2.51-1.71-3.64-4.2-3.07-4.18.95-8.4,1.86-12.43,3.29-6.85,2.43-13.59,5.21-20.33,7.95-1.78.73-3.47,1.75-5.06,2.85-1.59,1.1-1.75,2.26-.91,4.01.24.51.53,1,.84,1.47,3.38,4.94,3.9,10.33,2.33,15.95-2.72,9.71-8.75,16.94-17.35,22.09-6.2,3.71-13.04,5.67-20.13,6.77-3.44.53-6.9,1.02-10.37,1.21-2.73.15-5.53.08-8.22-.35-5.5-.88-8.67-4.66-9.11-10.36-.24-3.18.26-6.26,1.17-9.29,1.84-6.16,5.09-11.45,9.88-15.8,4.2-3.8,8.56-7.39,13.51-10.22,2.3-1.32,4.48-2.84,6.99-4.44-.74-.5-1.13-.87-1.6-1.06-1.65-.65-3.31-1.31-5-1.85-11.19-3.53-22.4-6.98-33.57-10.58-3.53-1.14-6.99-2.55-10.39-4.04-6.22-2.74-8.84-8.29-8.45-15.2.65-11.32,6.19-19.76,15.62-25.85,7.03-4.55,14.82-7.18,22.96-8.88,6.51-1.36,13.11-2.28,19.78-1.91,3.37.19,6.81.59,10.06,1.47,7.99,2.15,10.81,7.1,9.02,15.15-.56,2.54-1.49,4.94-3.11,7.01-2.51,3.21-5.56,3.67-8.92,1.39-.4-.27-.82-.54-1.16-.88-3.89-3.89-8.83-4.9-14.05-4.92-7.98-.04-15.59,1.89-22.85,5.02-3.7,1.59-7.2,3.67-10.69,5.7-2.12,1.23-2.08,2.22.02,3.52,1.43.89,2.99,1.65,4.58,2.19,8.11,2.77,16.27,5.42,24.39,8.18,6.83,2.32,13.47,5.05,19.69,8.79,2.33,1.4,4.93,2.41,7.5,3.34,2.6.94,5.28.85,7.81-.38,4.22-2.04,8.46-4.05,12.63-6.2,9.21-4.76,18.62-9.05,28.41-12.48,4.76-1.66,9.65-2.79,14.77-2.31,6.2.58,10.21,4.71,10.59,10.88.29,4.52-.8,8.79-2.25,13-.54,1.58-1.13,3.13-1.87,5.19h0Zm-94.69,39.31c3.99-.63,8.68-1.1,13.22-2.17,3.91-.92,7.74-2.33,11.43-3.92,2.01-.87,3.86-2.37,5.44-3.92,2.16-2.12,2.31-4.68.82-7.3-.76-1.32-1.57-2.64-2.53-3.82-2.15-2.69-4.35-3.29-7.49-1.92-1.84.8-3.59,1.86-5.26,2.98-4.02,2.69-8,5.45-11.96,8.25-2.7,1.91-5.35,3.89-7.98,5.9-.89.68-1.72,1.48-2.44,2.34-1.28,1.51-.98,2.44,1.01,2.87,1.65.35,3.35.43,5.74.72h0Zm208.6-37.46c-1.98,3.92-4.05,7.66-5.78,11.54-1.81,4.07-2.74,8.42-2.88,12.88-.08,2.54,2.05,3.99,4.4,2.97,1.15-.49,2.25-1.35,3.03-2.32,1.26-1.56,2.46-3.24,3.27-5.05,2.6-5.8,5.03-11.67,7.44-17.55.48-1.17.66-2.49.79-3.76.12-1.19-.5-1.7-1.65-1.33-1.29.42-2.64.92-3.71,1.72-1.55,1.14-3.05,1.79-4.91.9h0Z"/>
      <polygon class="cls-1" points="202.03 2.13 202.03 112.13 204.03 112.13 204.03 2.13 202.03 2.13 202.03 2.13"/>
    </g>
    <g>
      <path class="cls-1" d="m12.71,31.63c-2.59,0-4.51-.99-5.45-3.96l-7.26,2.04c1.1,5.39,6.6,7.87,13.26,7.87,6.05,0,11.72-2.64,11.72-9.35,0-5.67-3.85-7.43-10.67-8.97-3.14-.66-5.72-1.27-5.72-2.97,0-1.43,1.43-2.2,3.47-2.2,2.26,0,3.85.83,4.73,3.19l7.65-1.65c-1.49-5.23-6.66-7.26-12.1-7.26C5.28,8.36.71,11.72.71,17.38c0,5.34,3.85,7.21,10.07,8.42,3.03.61,5.83,1.21,5.83,3.41,0,1.82-1.98,2.42-3.91,2.42Z"/>
      <path class="cls-1" d="m65.57,37.02h8.75v-20.41c0-5.17-3.74-8.25-9.96-8.25-3.91,0-7.1,1.71-9.02,4.73-1.32-3.03-4.62-4.73-9.24-4.73-3.58,0-6.49,1.43-8.42,3.91l-.38-3.36h-8.2v28.11h8.69v-14.85c0-5.39,2.53-6.93,5.17-6.93,2.42,0,4.4,1.43,4.4,4.35v17.44h8.69v-14.85c0-5.39,2.53-6.93,5.17-6.93,2.42,0,4.35,1.43,4.35,4.35v17.44Z"/>
      <path class="cls-1" d="m93.45,19.47l-4.84,1.1c-4.68,1.1-10.62,2.86-10.62,9.3,0,5.78,4.9,7.7,9.3,7.7,3.47,0,7.21-1.16,9.19-3.91l.33,3.36h8.64v-.77c-.55-1.21-.6-2.64-.6-4.24v-13.26c0-6.77-4.51-10.4-12.87-10.4-7.26,0-12.6,2.75-13.81,8.8l8.31,1.26c.61-2.64,2.53-3.91,5.39-3.91,2.09,0,4.29.71,4.29,2.81,0,1.38-1.21,1.76-2.7,2.14Zm3.19,4.4c0,5.12-3.63,7.76-6.77,7.76-1.82,0-3.14-.88-3.14-2.7,0-2.15,1.76-2.86,3.25-3.19l6.66-1.87Z"/>
      <path class="cls-1" d="m118.75,24.31c0-6.11,2.75-8.75,9.19-8.75v-6.63c-4.18,0-7.48,1.13-9.19,3.66v-3.69h-8.69v28.11h8.69v-12.71Z"/>
      <path class="cls-1" d="m134.2,27.89c0,5.78,3.19,9.13,8.97,9.13h5.56v-6.88h-2.48c-2.09,0-3.36-1.04-3.36-3.58v-11h5.83v-6.66h-5.83V0h-7.65v3.41c0,4.51-1.82,5.5-4.62,5.5h-1.87v6.66h5.45v12.32Z"/>
      <path class="cls-1" d="m15.4,51.88c3.19,0,5.39,1.43,6.16,4.68l7.98-.77c-1.21-6.88-6.6-10.73-14.08-10.73C6.33,45.06.05,51,.05,59.63s6.27,14.63,15.4,14.63c7.26,0,12.87-3.85,14.08-10.73l-7.98-.77c-.77,3.19-2.97,4.73-6.16,4.73-4.13,0-6.66-3.25-6.66-7.87s2.53-7.76,6.66-7.76Z"/>
      <path class="cls-1" d="m46.75,45.06c-9.3.05-15.73,5.5-15.73,14.58s6.44,14.58,15.73,14.63c9.24-.05,15.68-5.45,15.68-14.63s-6.44-14.52-15.68-14.58Zm0,22.33c-4.29,0-7.04-3.13-7.04-7.76s2.75-7.7,7.04-7.7,6.99,3.19,6.99,7.7-2.75,7.76-6.99,7.76Z"/>
      <path class="cls-1" d="m80.8,45.06c-9.3.05-15.73,5.5-15.73,14.58s6.44,14.58,15.73,14.63c9.24-.05,15.68-5.45,15.68-14.63s-6.44-14.52-15.68-14.58Zm0,22.33c-4.29,0-7.04-3.13-7.04-7.76s2.75-7.7,7.04-7.7,6.99,3.19,6.99,7.7-2.75,7.76-6.99,7.76Z"/>
      <path class="cls-1" d="m115.98,74.27c7.54,0,13.7-5.45,13.7-14.69s-6.16-14.52-13.7-14.52c-3.63,0-6.88,1.21-8.47,3.52l-.33-2.97h-7.91v32.26c-.04,4.46-1.87,5.45-4.69,5.45h-1.9v6.76h5.53v12.52c0,5.87,3.24,9.28,9.11,9.28h5.64v-6.98h-2.51c-2.12,0-3.41-1.06-3.41-3.63v-11.17h5.92v-6.76h-5.57v-12.47c1.65,2.2,5.07,3.41,8.59,3.41Zm-1.87-22c3.85,0,6.88,2.64,6.88,7.32s-3.03,7.54-6.88,7.54-6.82-2.81-6.82-7.54,2.92-7.32,6.82-7.32Z"/>
      <path class="cls-1" d="m27.35,93.32c0-6.87-4.58-10.56-13.08-10.56-7.38,0-12.8,2.79-14.03,8.94l8.44,1.29c.61-2.68,2.57-3.97,5.48-3.97,2.12,0,4.36.73,4.36,2.85,0,1.4-1.23,1.79-2.74,2.18l-4.92,1.12c-4.75,1.12-10.78,2.91-10.78,9.44,0,5.87,4.97,7.82,9.44,7.82,3.52,0,7.32-1.17,9.33-3.97l.33,3.41h8.77v-.78c-.56-1.23-.61-2.68-.61-4.3v-13.47Zm-15.2,13.08c-1.84,0-3.19-.89-3.19-2.74,0-2.18,1.79-2.91,3.3-3.24l6.76-1.9c0,5.2-3.69,7.88-6.87,7.88Z"/>
      <path class="cls-1" d="m53.45,98.52c-.06,5.31-3.07,6.87-6.26,6.87-2.79,0-4.97-1.29-4.97-4.75v-17.32h-8.88v19.17c0,6.26,3.69,9.95,11.01,9.95,3.97,0,7.15-1.4,9.22-3.86l.34,3.3h8.38v-28.55h-8.83v15.2Z"/>
      <path class="cls-1" d="m80.78,93.83c-3.19-.67-5.81-1.29-5.81-3.02,0-1.45,1.45-2.24,3.52-2.24,2.29,0,3.91.84,4.81,3.24l7.77-1.68c-1.51-5.31-6.76-7.38-12.29-7.38-7.15,0-11.79,3.41-11.79,9.16,0,5.42,3.91,7.32,10.23,8.55,3.07.62,5.92,1.23,5.92,3.46,0,1.84-2.01,2.46-3.97,2.46-2.63,0-4.58-1.01-5.53-4.02l-7.38,2.07c1.12,5.48,6.71,7.99,13.47,7.99,6.15,0,11.9-2.68,11.9-9.5,0-5.76-3.91-7.54-10.84-9.11Z"/>
      <path class="cls-1" d="m127.38,87.07v-3.74h-8.83v28.55h8.83v-12.91c0-6.2,2.79-7.99,9.33-7.99v-8.21c-4.25,0-7.6,1.73-9.33,4.3Z"/>
      <rect class="cls-1" x="140.91" y="83.32" width="8.83" height="28.55"/>
      <path class="cls-1" d="m145.32,69.91c-2.74,0-4.97,2.23-4.97,4.92s2.23,4.97,4.97,4.97,4.92-2.23,4.92-4.97-2.24-4.92-4.92-4.92Z"/>
      <path class="cls-1" d="m182.09,106.79v-13.47c0-6.87-4.58-10.56-13.08-10.56-7.38,0-12.8,2.79-14.03,8.94l8.44,1.29c.61-2.68,2.57-3.97,5.48-3.97,2.12,0,4.36.73,4.36,2.85,0,1.4-1.23,1.79-2.74,2.18l-4.92,1.12c-4.75,1.12-10.78,2.91-10.78,9.44,0,5.87,4.97,7.82,9.44,7.82,3.52,0,7.32-1.17,9.33-3.97l.34,3.41h8.77v-.78c-.56-1.23-.61-2.68-.61-4.3Zm-15.2-.39c-1.84,0-3.19-.89-3.19-2.74,0-2.18,1.79-2.91,3.3-3.24l6.76-1.9c0,5.2-3.69,7.88-6.87,7.88Z"/>
    </g>
    <g>
      <path class="cls-1" d="m357.99,63.9c1.02-.65,1.58-1.04,2.17-1.39,4.71-2.83,9.39-5.71,14.16-8.45,1.45-.84,3.08-1.45,4.7-1.91,5.72-1.63,10.15.95,11.64,6.71.98,3.76.71,7.5-.18,11.23-.24,1-.47,2-.83,3.53,1.02-.76,1.63-1.22,2.24-1.67,6.96-5.13,13.86-10.34,20.9-15.36,2.69-1.92,5.66-3.46,8.56-5.06,2.46-1.36,4.13-.77,5.34,1.7,1.15,2.34,1.35,4.82.75,7.3-.56,2.26-1.3,4.48-2.02,6.7-1.71,5.3-3.28,10.64-3.06,16.28.07,1.66.39,3.38.98,4.93,1.26,3.26,3.96,4.81,7.35,4,2.16-.51,4.33-1.42,6.2-2.61,6.9-4.38,12.92-9.77,17.44-16.59,3.07-4.63,5.7-9.54,8.53-14.33.77-1.32,1.43-2.72,2.35-3.94,1.95-2.59,4-2.83,6.7-.96.26.18.51.39.86.67,4.66-4.21,9.95-6.35,15.96-3.26,5.61,2.89,8.32,7.85,8.47,14.74.73-1.14,1.12-1.79,1.55-2.42,1.17-1.7,3.05-2.57,4.8-2.05,2.05.61,3.84,1.74,3.98,4.04.09,1.54-.23,3.22-.8,4.67-.89,2.24-2.14,4.33-3.26,6.47-.85,1.62-1.22,3.32-1,5.13.23,2.02,1.23,2.89,3.25,2.7.94-.09,1.91-.37,2.79-.74,2.42-1.01,4.59-2.42,6.35-4.36,3.26-3.59,6.46-7.22,9.67-10.85,2.67-3.03,5.22-6.17,8.01-9.08,1.6-1.67,3.5-3.11,5.42-4.42,1.1-.75,2.48-1.24,3.8-1.51,3.93-.79,7.17,1.64,7.38,5.63.1,1.73-.18,3.55-.67,5.23-.95,3.24-2.17,6.4-3.26,9.6-.55,1.6-1.2,3.18-1.56,4.82-.99,4.52,1.81,8.1,6.47,8.13,1.73.01,3.56-.35,5.19-.96,4.6-1.71,8.62-4.42,12.22-7.74,4.85-4.48,8.58-9.8,12.11-15.87-1,.29-1.6.4-2.14.64-2.43,1.09-4.85,2.23-7.28,3.32-1.04.46-2.07.94-3.15,1.27-2.17.67-3.66-.15-4.3-2.27-.07-.23-.14-.46-.19-.7-1.15-5.95,2.91-14.57,8.47-17.09,3.74-1.69,7.75-2.77,11.65-4.1.53-.18,1.1-.3,1.66-.38,5.61-.74,9.47-3.82,11.98-8.77.84-1.65,1.68-3.34,2.8-4.8,1.01-1.31,2.28-2.52,3.67-3.4,1.63-1.04,3.02-.62,4.3.86,1.41,1.65,1.92,3.56,1.2,5.63-.49,1.44-1.21,2.8-1.84,4.19-.35.79-.73,1.56-1.35,2.86,2.38-.44,4.31-.65,6.14-1.17,13.91-3.91,28.25-5.62,42.43-8.12,5.58-.98,11.15-1.93,16.29-4.58,1.51-.78,3.39-.94,5.13-1.19,1.2-.18,2.14.48,2.86,1.49,1.8,2.53,2.11,5.24.79,7.99-.71,1.5-1.67,2.97-2.81,4.19-3.42,3.69-7.59,6.24-12.52,7.48-10.77,2.72-21.71,4.5-32.66,6.33-9.18,1.53-18.34,3.19-27.52,4.75-5.61.95-9.62,3.95-12.18,8.97-3.02,5.93-4.85,12.12-3.97,18.84,1.02,7.72,5.81,12.03,13.69,12.38,9.81.44,19.15-1.65,28.16-5.38,7.53-3.12,14.43-7.29,20.63-12.58.44-.37.84-.77,1.31-1.09,1.81-1.24,3.93-.69,4.86,1.32.96,2.08.87,4.23.12,6.35-.79,2.25-2.21,4.1-3.84,5.81-2.65,2.76-5.73,4.98-9.01,6.92-9.57,5.66-19.96,9.17-30.74,11.67-5.39,1.25-10.81,2.13-16.36,1.89-3.67-.16-7.24-.81-10.62-2.3-6.59-2.89-10.16-8-11.15-14.99-.22-1.49-.37-3-.58-4.77-.62.47-1.05.8-1.48,1.12-5.17,4.05-10.68,7.57-16.55,10.53-4.76,2.39-9.77,3.83-15.19,3.66-6.74-.21-10.87-4.03-11.49-10.69-.45-4.83.43-9.46,2.03-13.99.25-.73.52-1.45.78-2.18-.18-.15-.37-.29-.56-.44-.46.64-.87,1.32-1.39,1.9-3.99,4.45-7.89,8.98-12.04,13.28-2.79,2.9-5.8,5.62-8.95,8.12-2.74,2.17-5.95,3.61-9.5,4.04-6.93.85-11.66-2.99-12.21-9.9-.1-1.27,0-2.57,0-3.98-1.09.17-1.43,1.16-2,1.83-2.19,2.58-4.11,5.44-6.57,7.73-3.12,2.9-6.58,5.46-10.08,7.92-2.39,1.68-5.16,2.68-8.18,2.71-4.73.04-8.15-2.27-9.47-6.77-.58-1.98-.68-4.11-.95-6.18-.09-.7,0-1.41,0-2.71-1.01.92-1.62,1.51-2.25,2.06-3.22,2.82-6.35,5.75-9.7,8.41-3.13,2.48-6.69,4.2-10.72,4.87-7.05,1.17-13.21-2.2-15.78-8.78-1.85-4.75-2.22-9.7-1.8-14.73.38-4.52,1.05-8.95,3.14-13.06.14-.28.18-.62.25-.93,0-.05-.08-.12-.31-.42-.68.45-1.43.87-2.08,1.4-7.48,6.05-15.05,11.99-22.37,18.22-5.12,4.36-9.41,9.52-12.96,15.27-.73,1.18-1.84,2.29-3.03,3.01-2.34,1.41-4.47.35-5.18-2.28-.61-2.26-.4-4.52.27-6.68.8-2.61,1.78-5.18,2.88-7.68,1.52-3.47,3.26-6.84,4.83-10.28.73-1.61,1.35-3.27,1.86-4.96.25-.81.26-1.76.14-2.61-.49-3.38-2.25-4.52-5.44-3.35-1.72.63-3.38,1.56-4.92,2.57-10.25,6.72-18.97,15.06-26.28,24.86-1.15,1.55-2.04,3.29-3.16,4.86-.94,1.3-1.94,2.59-3.1,3.69-1.17,1.11-2.66,1.52-4.27.85-1.55-.65-2.03-1.96-2.19-3.48-.33-3.26-.03-6.49,1.28-9.48,1.61-3.68,3.38-7.3,5.33-10.82,2.81-5.08,5.9-10,8.74-15.06,1.42-2.52,2.59-5.18,3.77-7.82.88-1.95,1.05-4.05.76-6.16-.33-2.51-1.71-3.64-4.2-3.07-4.18.95-8.4,1.86-12.43,3.29-6.85,2.43-13.59,5.21-20.33,7.95-1.78.73-3.47,1.75-5.06,2.85-1.59,1.1-1.75,2.26-.91,4.01.24.51.53,1,.84,1.47,3.38,4.94,3.9,10.33,2.33,15.95-2.72,9.71-8.75,16.94-17.35,22.09-6.2,3.71-13.04,5.67-20.13,6.77-3.44.53-6.9,1.02-10.37,1.21-2.73.15-5.53.08-8.22-.35-5.5-.88-8.67-4.66-9.11-10.36-.24-3.18.26-6.26,1.17-9.29,1.84-6.16,5.09-11.45,9.88-15.8,4.2-3.8,8.56-7.39,13.51-10.22,2.3-1.32,4.48-2.84,6.99-4.44-.74-.5-1.13-.87-1.6-1.06-1.65-.65-3.31-1.31-5-1.85-11.19-3.53-22.4-6.98-33.57-10.58-3.53-1.14-6.99-2.55-10.39-4.04-6.22-2.74-8.84-8.29-8.45-15.2.65-11.32,6.19-19.76,15.62-25.85,7.03-4.55,14.82-7.18,22.96-8.88,6.51-1.36,13.11-2.28,19.78-1.91,3.37.19,6.81.59,10.06,1.47,7.99,2.15,10.81,7.1,9.02,15.15-.56,2.54-1.49,4.94-3.11,7.01-2.51,3.21-5.56,3.67-8.92,1.39-.4-.27-.82-.54-1.16-.88-3.89-3.89-8.83-4.9-14.05-4.92-7.98-.04-15.59,1.89-22.85,5.02-3.7,1.59-7.2,3.67-10.69,5.7-2.12,1.23-2.08,2.22.02,3.52,1.43.89,2.99,1.65,4.58,2.19,8.11,2.77,16.27,5.42,24.39,8.18,6.83,2.32,13.47,5.05,19.69,8.79,2.33,1.4,4.93,2.41,7.5,3.34,2.6.94,5.28.85,7.81-.38,4.22-2.04,8.46-4.05,12.63-6.2,9.21-4.76,18.62-9.05,28.41-12.48,4.76-1.66,9.65-2.79,14.77-2.31,6.2.58,10.21,4.71,10.59,10.88.29,4.52-.8,8.79-2.25,13-.54,1.58-1.13,3.13-1.87,5.19h0Zm-94.69,39.31c3.99-.63,8.68-1.1,13.22-2.17,3.91-.92,7.74-2.33,11.43-3.92,2.01-.87,3.86-2.37,5.44-3.92,2.16-2.12,2.31-4.68.82-7.3-.76-1.32-1.57-2.64-2.53-3.82-2.15-2.69-4.35-3.29-7.49-1.92-1.84.8-3.59,1.86-5.26,2.98-4.02,2.69-8,5.45-11.96,8.25-2.7,1.91-5.35,3.89-7.98,5.9-.89.68-1.72,1.48-2.44,2.34-1.28,1.51-.98,2.44,1.01,2.87,1.65.35,3.35.43,5.74.72h0Zm208.6-37.46c-1.98,3.92-4.05,7.66-5.78,11.54-1.81,4.07-2.74,8.42-2.88,12.88-.08,2.54,2.05,3.99,4.4,2.97,1.15-.49,2.25-1.35,3.03-2.32,1.26-1.56,2.46-3.24,3.27-5.05,2.6-5.8,5.03-11.67,7.44-17.55.48-1.17.66-2.49.79-3.76.12-1.19-.5-1.7-1.65-1.33-1.29.42-2.64.92-3.71,1.72-1.55,1.14-3.05,1.79-4.91.9h0Z"/>
      <polygon class="cls-1" points="202.03 2.13 202.03 112.13 204.03 112.13 204.03 2.13 202.03 2.13 202.03 2.13"/>
    </g>
  </g>
</svg>